<svg width="18" height="18" viewBox="0 0 18 18" fill="none" xmlns="http://www.w3.org/2000/svg">
<g clip-path="url(#clip0_5355_2635)">
<path d="M1.12498 9.61875H16.8187C17.1562 9.61875 17.4375 9.3375 17.4375 9C17.4375 8.6625 17.1562 8.38125 16.8187 8.38125H1.12498C0.787476 8.38125 0.506226 8.6625 0.506226 9C0.506226 9.3375 0.787476 9.61875 1.12498 9.61875Z" fill="#000926"/>
<path d="M8.9719 6.69375C9.3094 6.69375 9.59065 6.4125 9.59065 6.075V3.43125C9.59065 3.09375 9.3094 2.8125 8.9719 2.8125C8.6344 2.8125 8.35315 3.09375 8.35315 3.43125V6.075C8.35315 6.4125 8.6344 6.69375 8.9719 6.69375Z" fill="#000926"/>
<path d="M8.9719 11.3063C8.6344 11.3063 8.35315 11.5875 8.35315 11.925V14.5688C8.35315 14.9063 8.6344 15.1875 8.9719 15.1875C9.3094 15.1875 9.59065 14.9063 9.59065 14.5688V11.925C9.61877 11.5875 9.33752 11.3063 8.9719 11.3063Z" fill="#000926"/>
<path d="M14.0906 1.77188H15.6656C15.975 1.77188 16.2 2.025 16.2 2.30625V3.88125C16.2 4.21875 16.4812 4.5 16.8187 4.5C17.1562 4.5 17.4375 4.21875 17.4375 3.88125V2.33438C17.4375 1.35 16.6218 0.534378 15.6375 0.534378H14.0625C13.725 0.534378 13.4437 0.815628 13.4437 1.15313C13.4437 1.49063 13.725 1.77188 14.0906 1.77188Z" fill="#000926"/>
<path d="M1.12498 4.52812C1.46248 4.52812 1.74373 4.24687 1.74373 3.90937V2.33437C1.74373 2.025 1.99685 1.8 2.2781 1.8H3.8531C4.1906 1.8 4.47185 1.51875 4.47185 1.18125C4.47185 0.84375 4.1906 0.5625 3.8531 0.5625H2.30623C1.32185 0.5625 0.506226 1.37812 0.506226 2.3625V3.9375C0.506226 4.24687 0.787476 4.52812 1.12498 4.52812Z" fill="#000926"/>
<path d="M3.88118 16.2281H2.30618C1.9968 16.2281 1.7718 15.975 1.7718 15.6938V14.1188C1.7718 13.7813 1.49055 13.5 1.15305 13.5C0.815552 13.5 0.534302 13.7813 0.534302 14.1188V15.6938C0.534302 16.6781 1.34993 17.4938 2.3343 17.4938H3.9093C4.2468 17.4938 4.52805 17.2125 4.52805 16.875C4.52805 16.5375 4.21868 16.2281 3.88118 16.2281Z" fill="#000926"/>
<path d="M16.8187 13.4719C16.4812 13.4719 16.1999 13.7531 16.1999 14.0906V15.6656C16.1999 15.975 15.9468 16.2 15.6656 16.2H14.0906C13.7531 16.2 13.4718 16.4813 13.4718 16.8188C13.4718 17.1563 13.7531 17.4375 14.0906 17.4375H15.6656C16.6499 17.4375 17.4656 16.6219 17.4656 15.6375V14.0625C17.4656 13.7531 17.1843 13.4719 16.8187 13.4719Z" fill="#000926"/>
<path d="M6.2719 16.2281H5.87815C5.54065 16.2281 5.2594 16.5094 5.2594 16.8469C5.2594 17.1844 5.54065 17.4656 5.87815 17.4656H6.2719C6.6094 17.4656 6.89065 17.1844 6.89065 16.8469C6.89065 16.5094 6.63752 16.2281 6.2719 16.2281Z" fill="#000926"/>
<path d="M12.1781 16.2281H11.7844C11.4469 16.2281 11.1656 16.5094 11.1656 16.8469C11.1656 17.1844 11.4469 17.4656 11.7844 17.4656H12.1781C12.5156 17.4656 12.7969 17.1844 12.7969 16.8469C12.7969 16.5094 12.5156 16.2281 12.1781 16.2281Z" fill="#000926"/>
<path d="M5.87815 1.77188H6.2719C6.6094 1.77188 6.89065 1.49063 6.89065 1.15313C6.89065 0.815628 6.6094 0.534378 6.2719 0.534378H5.87815C5.54065 0.534378 5.2594 0.815628 5.2594 1.15313C5.2594 1.49063 5.54065 1.77188 5.87815 1.77188Z" fill="#000926"/>
<path d="M11.7844 1.77188H12.1781C12.5156 1.77188 12.7969 1.49063 12.7969 1.15313C12.7969 0.815628 12.5156 0.534378 12.1781 0.534378H11.7844C11.4469 0.534378 11.1656 0.815628 11.1656 1.15313C11.1656 1.49063 11.4188 1.77188 11.7844 1.77188Z" fill="#000926"/>
<path d="M16.875 5.23125C16.5375 5.23125 16.2562 5.5125 16.2562 5.85V6.24375C16.2562 6.58125 16.5375 6.8625 16.875 6.8625C17.2125 6.8625 17.4937 6.58125 17.4937 6.24375V5.85C17.4937 5.5125 17.2125 5.23125 16.875 5.23125Z" fill="#000926"/>
<path d="M16.875 11.1094C16.5375 11.1094 16.2562 11.3906 16.2562 11.7281V12.1219C16.2562 12.4594 16.5375 12.7406 16.875 12.7406C17.2125 12.7406 17.4937 12.4594 17.4937 12.1219V11.7281C17.4937 11.3906 17.2125 11.1094 16.875 11.1094Z" fill="#000926"/>
<path d="M1.18125 5.23125C0.84375 5.23125 0.5625 5.5125 0.5625 5.85V6.24375C0.5625 6.58125 0.84375 6.8625 1.18125 6.8625C1.51875 6.8625 1.8 6.58125 1.8 6.24375V5.85C1.8 5.5125 1.51875 5.23125 1.18125 5.23125Z" fill="#000926"/>
<path d="M0.534302 11.7563V12.15C0.534302 12.4875 0.815552 12.7688 1.15305 12.7688C1.49055 12.7688 1.7718 12.4875 1.7718 12.15V11.7563C1.7718 11.4188 1.49055 11.1375 1.15305 11.1375C0.815552 11.1375 0.534302 11.3906 0.534302 11.7563Z" fill="#000926"/>
</g>
<defs>
<clipPath id="clip0_5355_2635">
<rect width="18" height="18" fill="white"/>
</clipPath>
</defs>
</svg>
