<svg width="18" height="18" viewBox="0 0 18 18" fill="none" xmlns="http://www.w3.org/2000/svg">
<path d="M17.9797 0.0204086H0.0205078V17.9796H17.9797V0.0204086Z" fill="black" stroke="black" stroke-miterlimit="10"/>
<path d="M15.2494 5.2C15.0372 5.03265 14.7841 4.80408 14.3229 4.74694C13.8902 4.6898 13.4494 4.97959 13.1514 5.17143C12.8535 5.36326 12.2902 5.92653 12.0576 6.09796C11.8249 6.26939 11.229 6.42857 10.2698 7.00408C9.31063 7.57959 5.54737 9.99592 5.54737 9.99592L6.52696 10.0082L2.15961 12.2571H2.59634L1.96777 12.7347C1.96777 12.7347 2.52288 12.8816 2.98818 12.5878V12.7224C2.98818 12.7224 8.18818 10.6735 9.19226 11.2041L8.58002 11.3837C8.63308 11.3837 9.62083 11.449 9.62083 11.449C9.64481 11.6535 9.71356 11.8503 9.8222 12.0252C9.93084 12.2002 10.0767 12.349 10.2494 12.4612C10.8453 12.8531 10.8576 13.0694 10.8576 13.0694C10.8576 13.0694 10.5474 13.1959 10.5474 13.3551C10.5474 13.3551 11.0045 13.2163 11.429 13.2286C11.6984 13.2388 11.9656 13.2813 12.2249 13.3551C12.2249 13.3551 12.1923 13.1837 11.78 13.0694C11.3678 12.9551 10.9596 12.5061 10.7596 12.2612C10.6371 12.1053 10.5573 11.9203 10.5279 11.7242C10.4986 11.5281 10.5208 11.3278 10.5923 11.1429C10.7351 10.7714 11.2331 10.5673 12.2617 10.0367C13.4739 9.40816 13.7514 8.94286 13.9229 8.57959C14.0943 8.21633 14.3474 7.49388 14.4902 7.1551C14.6698 6.71837 14.8902 6.48571 15.0739 6.34694C15.2576 6.20816 16.0739 5.90204 16.0739 5.90204C16.0739 5.90204 15.4494 5.35918 15.2494 5.2Z" fill="white"/>
</svg>
