<svg width="18" height="18" viewBox="0 0 18 18" fill="none" xmlns="http://www.w3.org/2000/svg">
<g clip-path="url(#clip0_5386_1827)">
<path d="M17.7307 11.1774C16.5286 15.9988 11.6446 18.9331 6.82204 17.7308C2.00147 16.5288 -0.933111 11.6451 0.269567 6.824C1.47119 2.002 6.35511 -0.932475 11.1762 0.26954C15.9984 1.47155 18.9329 6.35576 17.7306 11.1775L17.7307 11.1774H17.7307Z" fill="#F7931A"/>
<path d="M12.9692 7.71772C13.1484 6.52002 12.2364 5.87621 10.9894 5.44672L11.394 3.82433L10.4063 3.57824L10.0124 5.15792C9.75278 5.09316 9.48612 5.03215 9.22108 4.97166L9.61775 3.38155L8.63066 3.13547L8.22589 4.75733C8.01101 4.70842 7.79997 4.66007 7.59521 4.60913L7.59635 4.60402L6.23428 4.26393L5.97153 5.31875C5.97153 5.31875 6.70433 5.48671 6.68889 5.49705C7.08886 5.59686 7.16119 5.8616 7.14917 6.07144L6.68836 7.91973C6.7159 7.92672 6.75163 7.93684 6.79105 7.95268C6.75809 7.9445 6.72303 7.93556 6.68664 7.92685L6.04074 10.516C5.99186 10.6375 5.86779 10.8199 5.58815 10.7506C5.59805 10.765 4.87026 10.5715 4.87026 10.5715L4.37988 11.702L5.66523 12.0224C5.90435 12.0823 6.13867 12.1451 6.36943 12.2041L5.96071 13.8451L6.94728 14.0912L7.35204 12.4676C7.62156 12.5407 7.88312 12.6082 8.13918 12.6718L7.73577 14.2878L8.72353 14.5338L9.13221 12.8959C10.8165 13.2146 12.0829 13.0861 12.616 11.5629C13.0455 10.3365 12.5946 9.62914 11.7085 9.16785C12.3539 9.01902 12.84 8.5946 12.9696 7.71785L12.9693 7.71763L12.9692 7.71772ZM10.7126 10.8818C10.4073 12.1082 8.34222 11.4453 7.67268 11.279L8.21507 9.10498C8.88456 9.2721 11.0316 9.60283 10.7126 10.8818H10.7126ZM11.018 7.69995C10.7396 8.81548 9.02077 8.24874 8.46321 8.10977L8.95495 6.13804C9.51251 6.27701 11.3081 6.53638 11.0181 7.69995H11.018Z" fill="white"/>
</g>
<defs>
<clipPath id="clip0_5386_1827">
<rect width="18" height="18" fill="white"/>
</clipPath>
</defs>
</svg>
